<svg width="208" height="70" fill="none" xmlns="http://www.w3.org/2000/svg"><path d="M88.515 35.9c0 9.715-7.64 16.875-17.015 16.875S54.485 45.615 54.485 35.9c0-9.785 7.64-16.876 17.015-16.876S88.515 26.115 88.515 35.9zm-7.449 0c0-6.073-4.427-10.227-9.566-10.227-5.139 0-9.566 4.154-9.566 10.226 0 6.01 4.427 10.226 9.566 10.226 5.139 0 9.566-4.223 9.566-10.226z" fill="#EA4335"/><path d="M125.221 35.9c0 9.715-7.64 16.875-17.015 16.875S91.191 45.615 91.191 35.9c0-9.777 7.64-16.876 17.015-16.876s17.015 7.091 17.015 16.876zm-7.449 0c0-6.073-4.427-10.227-9.566-10.227-5.139 0-9.567 4.154-9.567 10.226 0 6.01 4.428 10.226 9.567 10.226s9.566-4.223 9.566-10.226z" fill="#FBBC05"/><path d="M160.397 20.043V50.34c0 12.463-7.388 17.554-16.12 17.554-8.221 0-13.168-5.471-15.034-9.945l6.484-2.686c1.155 2.747 3.985 5.988 8.542 5.988 5.59 0 9.055-3.431 9.055-9.891v-2.427h-.26c-1.668 2.047-4.88 3.834-8.932 3.834-8.481 0-16.251-7.35-16.251-16.807 0-9.526 7.77-16.937 16.251-16.937 4.045 0 7.257 1.788 8.932 3.774h.26V20.05h7.073v-.008zm-6.546 15.917c0-5.943-3.985-10.287-9.054-10.287-5.14 0-9.445 4.345-9.445 10.287 0 5.882 4.305 10.165 9.445 10.165 5.069 0 9.054-4.283 9.054-10.165z" fill="#4285F4"/><path d="M172.058 2.282v49.456h-7.264V2.282h7.264z" fill="#34A853"/><path d="M200.368 41.451l5.782 3.835c-1.866 2.747-6.362 7.48-14.132 7.48-9.636 0-16.831-7.411-16.831-16.877 0-10.036 7.257-16.876 15.998-16.876 8.801 0 13.106 6.97 14.514 10.736l.771 1.917-22.673 9.344c1.737 3.386 4.436 5.113 8.221 5.113 3.792 0 6.424-1.857 8.35-4.672zm-17.795-6.072l15.158-6.261c-.835-2.108-3.343-3.577-6.295-3.577-3.785 0-9.054 3.325-8.863 9.838z" fill="#EA4335"/><path d="M26.986 31.508v-7.16h24.249c.237 1.248.36 2.725.36 4.322 0 5.372-1.477 12.014-6.233 16.747-4.627 4.794-10.538 7.35-18.368 7.35-14.515 0-26.72-11.763-26.72-26.204C.275 12.12 12.48.358 26.995.358c8.029 0 13.749 3.135 18.047 7.221l-5.078 5.052c-3.082-2.876-7.257-5.113-12.977-5.113-10.599 0-18.888 8.5-18.888 19.045 0 10.545 8.289 19.044 18.888 19.044 6.875 0 10.79-2.746 13.298-5.242 2.034-2.024 3.373-4.915 3.9-8.864l-17.198.007z" fill="#4285F4"/></svg>