<svg width="246" height="70" fill="none" xmlns="http://www.w3.org/2000/svg"><g clip-path="url(#clip0)"><path d="M52.761 13.26c-.065-.33-.33-.527-.593-.527-.264 0-5.474-.396-5.474-.396s-3.627-3.628-4.089-4.024c-.396-.396-1.187-.264-1.517-.198-.066 0-.791.264-2.044.66-1.253-3.563-3.364-6.796-7.19-6.796h-.329C30.47.594 29.151 0 27.964 0c-8.838 0-13.059 11.018-14.378 16.625-3.43 1.056-5.87 1.782-6.2 1.914-1.912.593-1.978.66-2.176 2.44C5.012 22.366 0 61.158 0 61.158l39.044 7.258 21.17-4.553c.066-.066-7.386-50.272-7.453-50.601zM36.933 9.303c-.99.264-2.11.66-3.298 1.056v-.726c0-2.177-.263-3.958-.79-5.344 1.978.264 3.23 2.441 4.088 5.014zM30.338 4.75c.527 1.386.857 3.299.857 5.938v.396c-2.176.66-4.485 1.385-6.793 2.11 1.32-5.013 3.891-7.52 5.936-8.444zm-2.572-2.507c.396 0 .791.132 1.12.396-2.835 1.32-5.869 4.684-7.122 11.413-1.912.594-3.693 1.122-5.408 1.716 1.517-5.146 5.078-13.525 11.41-13.525z" fill="#95BF47"/><path d="M52.168 12.668c-.264 0-5.474-.396-5.474-.396s-3.628-3.629-4.09-4.025c-.131-.132-.329-.264-.527-.264l-2.902 60.432 21.17-4.552s-7.452-50.272-7.452-50.602c-.198-.395-.461-.527-.725-.593z" fill="#5E8E3E"/><path d="M31.92 24.337l-2.572 7.719s-2.308-1.254-5.078-1.254c-4.155 0-4.353 2.64-4.353 3.233 0 3.563 9.233 4.882 9.233 13.195 0 6.531-4.154 10.753-9.694 10.753-6.728 0-10.091-4.156-10.091-4.156l1.78-5.938s3.562 3.035 6.53 3.035c1.978 0 2.77-1.517 2.77-2.639 0-4.618-7.519-4.816-7.519-12.469 0-6.4 4.551-12.535 13.85-12.535 3.364.066 5.144 1.056 5.144 1.056z" fill="#fff"/><path d="M84.945 38.928c-2.11-1.122-3.231-2.111-3.231-3.431 0-1.715 1.517-2.77 3.89-2.77 2.77 0 5.211 1.12 5.211 1.12l1.913-5.871s-1.781-1.386-6.991-1.386c-7.255 0-12.333 4.157-12.333 10.028 0 3.3 2.374 5.872 5.474 7.654 2.572 1.385 3.43 2.44 3.43 3.958 0 1.583-1.254 2.837-3.628 2.837-3.496 0-6.793-1.782-6.793-1.782l-2.045 5.872s3.034 2.045 8.178 2.045c7.453 0 12.861-3.694 12.861-10.292 0-3.562-2.704-6.07-5.936-7.982zm29.745-12.403c-3.694 0-6.595 1.78-8.772 4.42l-.066-.066 3.232-16.692h-8.31L92.662 56.74h8.31l2.77-14.514c1.055-5.475 3.957-8.906 6.595-8.906 1.912 0 2.638 1.253 2.638 3.1 0 1.122-.066 2.574-.33 3.695l-3.1 16.625h8.31l3.232-17.153c.33-1.781.594-3.958.594-5.476-.198-4.815-2.638-7.586-6.991-7.586zm25.655 0c-10.025 0-16.62 9.038-16.62 19.132 0 6.4 3.958 11.611 11.41 11.611 9.826 0 16.422-8.774 16.422-19.132.065-6.004-3.43-11.611-11.212-11.611zm-4.088 24.344c-2.838 0-4.024-2.375-4.024-5.476 0-4.75 2.44-12.535 6.991-12.535 2.902 0 3.957 2.573 3.957 5.014-.066 5.146-2.573 12.997-6.924 12.997zm36.602-24.344c-5.605 0-8.771 4.948-8.771 4.948h-.066l.461-4.487h-7.386c-.33 3.035-1.056 7.653-1.715 11.018l-5.738 30.48h8.31l2.308-12.337h.199s1.714 1.055 4.88 1.055c9.761 0 16.158-10.028 16.158-20.122 0-5.541-2.572-10.555-8.64-10.555zM164.879 51c-2.177 0-3.429-1.254-3.429-1.254l1.385-7.719c.989-5.212 3.693-8.642 6.595-8.642 2.571 0 3.297 2.375 3.297 4.552.066 5.41-3.166 13.063-7.848 13.063zm28.491-36.418c-2.638 0-4.748 2.112-4.748 4.816 0 2.441 1.582 4.157 3.957 4.157h.066c2.638 0 4.814-1.782 4.881-4.816-.067-2.441-1.715-4.157-4.156-4.157zm-11.673 42.092h8.31l5.605-29.557h-8.375l-5.54 29.557zm35.153-29.557h-5.804l.263-1.385c.462-2.837 2.177-5.344 4.946-5.344 1.517 0 2.639.462 2.639.462l1.583-6.531s-1.386-.726-4.551-.726c-2.902 0-5.869.857-8.112 2.77-2.836 2.376-4.155 5.872-4.815 9.435l-.264 1.385h-3.891l-1.252 6.268h3.891l-4.42 23.288h8.311l4.418-23.288h5.738l1.32-6.334zm19.983 0s-5.211 13.13-7.519 20.32h-.066c-.132-2.309-2.044-20.32-2.044-20.32h-8.772l5.012 27.05c.066.593.066.99-.197 1.385-.989 1.913-2.639 3.695-4.552 5.014a17.715 17.715 0 01-4.747 2.375l2.307 7.06c1.716-.33 5.211-1.782 8.113-4.553 3.759-3.563 7.32-9.038 10.882-16.493l10.157-21.838h-8.574z" fill="#000"/></g><defs><clipPath id="clip0"><path fill="#fff" d="M0 0h246v70H0z"/></clipPath></defs></svg>